<?xml version="1.0" encoding="UTF-8" standalone="no"?>
<svg
   xmlns:dc="http://purl.org/dc/elements/1.1/"
   xmlns:cc="http://creativecommons.org/ns#"
   xmlns:rdf="http://www.w3.org/1999/02/22-rdf-syntax-ns#"
   xmlns:svg="http://www.w3.org/2000/svg"
   xmlns="http://www.w3.org/2000/svg"
   xmlns:sodipodi="http://sodipodi.sourceforge.net/DTD/sodipodi-0.dtd"
   xmlns:inkscape="http://www.inkscape.org/namespaces/inkscape"
   width="106mm"
   height="106mm"
   viewBox="0 0 106 106"
   version="1.1"
   id="svg8"
   inkscape:version="1.0.2 (e86c870879, 2021-01-15)"
   sodipodi:docname="logo.svg"
   inkscape:export-filename="/home/alice/Pictures/logo.png"
   inkscape:export-xdpi="981.49438"
   inkscape:export-ydpi="981.49438">
  <defs
     id="defs2" />
  <sodipodi:namedview
     id="base"
     pagecolor="#ffffff"
     bordercolor="#666666"
     borderopacity="1.0"
     inkscape:pageopacity="0.0"
     inkscape:pageshadow="2"
     inkscape:zoom="1.4"
     inkscape:cx="173.62526"
     inkscape:cy="198.37964"
     inkscape:document-units="mm"
     inkscape:current-layer="layer2"
     inkscape:document-rotation="0"
     showgrid="false"
     inkscape:window-width="2560"
     inkscape:window-height="1379"
     inkscape:window-x="1920"
     inkscape:window-y="0"
     inkscape:window-maximized="1"
     fit-margin-top="0"
     fit-margin-left="0"
     fit-margin-right="0"
     fit-margin-bottom="0" />
  <metadata
     id="metadata5">
    <rdf:RDF>
      <cc:Work
         rdf:about="">
        <dc:format>image/svg+xml</dc:format>
        <dc:type
           rdf:resource="http://purl.org/dc/dcmitype/StillImage" />
        <dc:title />
      </cc:Work>
    </rdf:RDF>
  </metadata>
  <g
     inkscape:groupmode="layer"
     id="layer4"
     inkscape:label="Layer 3">
    <rect
       style="display:inline;fill:#ffffff;fill-opacity:1;stroke:none;stroke-width:0.466401;stroke-linecap:round;stroke-opacity:1"
       id="rect906"
       width="106"
       height="106"
       x="-7.1054274e-15"
       y="0" />
  </g>
  <g
     inkscape:groupmode="layer"
     id="layer2"
     inkscape:label="Layer 2"
     style="display:inline"
     transform="translate(-52.009556,-88.295242)">
    <path
       style="fill:#f7ec13;fill-opacity:1;stroke:none;stroke-width:0.264583px;stroke-linecap:butt;stroke-linejoin:miter;stroke-opacity:1"
       d="m 86.150219,127.57641 -1.13393,3.93096 3.817561,-2.00328 -2.343443,2.83482 3.628562,0.75596 -3.212799,0.79374 1.965481,1.73869 -2.721432,-0.22678 2.078868,3.02381 -3.515175,-2.19226 -0.377976,2.11666 -0.642564,-1.85208 -2.645833,2.87262 0.453575,-3.0994 -2.683632,0.45357 2.192269,-1.96548 -2.641116,-0.44412 2.494645,-1.32292 -1.795386,-1.5308 2.475744,0.11339 -1.493004,-3.1183 3.420679,2.19226 z"
       id="path847" />
    <path
       style="fill:#f7ec13;fill-opacity:1;stroke:none;stroke-width:0.264583px;stroke-linecap:butt;stroke-linejoin:miter;stroke-opacity:1"
       d="m 111.09665,110.2462 4.02545,-2.04107 -2.49464,3.04271 4.11993,0.66146 -3.64746,0.83155 2.05997,1.87098 -2.68364,-0.0756 1.98438,3.08051 -3.60968,-2.24896 -0.41577,2.26786 -0.86934,-2.13557 -2.62694,3.2128 0.37798,-3.38289 -2.87262,0.51027 2.53244,-2.09777 -3.02381,-0.37797 2.60804,-1.43631 -1.85209,-1.682 2.92932,0.22679 -1.90878,-3.47738 3.59077,2.43794 2.89152,-3.0616 z"
       id="path849" />
    <path
       style="fill:#f7ec13;fill-opacity:1;stroke:none;stroke-width:0.264583px;stroke-linecap:butt;stroke-linejoin:miter;stroke-opacity:1"
       d="m 135.59423,152.54174 0.69926,1.6442 0.54807,-1.96548 3.1183,2.02217 -1.79539,-2.83482 2.45685,0.0945 -1.96548,-1.7009 3.66637,-0.71815 -3.93095,-0.75596 2.45684,-2.75922 -3.68527,1.90878 1.00164,-3.85536 -2.68363,3.0994 -3.30729,-2.26785 1.41741,3.04271 -2.40015,-0.1134 1.5497,1.6064 -2.41904,1.34182 2.57023,0.47247 -2.09776,1.70089 2.64583,-0.37797 -0.32128,2.96711 z"
       id="path886" />
  </g>
</svg>
