<?xml version="1.0" encoding="UTF-8" standalone="no"?>
<svg
   width="90mm"
   height="90mm"
   viewBox="0 0 90 90"
   version="1.1"
   id="svg8"
   inkscape:version="1.2.2 (b0a8486541, 2022-12-01)"
   sodipodi:docname="logo.svg"
   inkscape:export-filename="logo2_dark.png"
   inkscape:export-xdpi="981.49438"
   inkscape:export-ydpi="981.49438"
   xmlns:inkscape="http://www.inkscape.org/namespaces/inkscape"
   xmlns:sodipodi="http://sodipodi.sourceforge.net/DTD/sodipodi-0.dtd"
   xmlns="http://www.w3.org/2000/svg"
   xmlns:svg="http://www.w3.org/2000/svg"
   xmlns:rdf="http://www.w3.org/1999/02/22-rdf-syntax-ns#"
   xmlns:cc="http://creativecommons.org/ns#"
   xmlns:dc="http://purl.org/dc/elements/1.1/">
  <defs
     id="defs2" />
  <sodipodi:namedview
     id="base"
     pagecolor="#ffffff"
     bordercolor="#666666"
     borderopacity="1.0"
     inkscape:pageopacity="0.0"
     inkscape:pageshadow="2"
     inkscape:zoom="1.4"
     inkscape:cx="147.85714"
     inkscape:cy="199.28571"
     inkscape:document-units="mm"
     inkscape:current-layer="layer1"
     inkscape:document-rotation="0"
     showgrid="false"
     inkscape:window-width="2560"
     inkscape:window-height="1379"
     inkscape:window-x="0"
     inkscape:window-y="0"
     inkscape:window-maximized="1"
     fit-margin-top="0"
     fit-margin-left="0"
     fit-margin-right="0"
     fit-margin-bottom="0"
     inkscape:showpageshadow="2"
     inkscape:pagecheckerboard="0"
     inkscape:deskcolor="#d1d1d1" />
  <metadata
     id="metadata5">
    <rdf:RDF>
      <cc:Work
         rdf:about="">
        <dc:format>image/svg+xml</dc:format>
        <dc:type
           rdf:resource="http://purl.org/dc/dcmitype/StillImage" />
      </cc:Work>
    </rdf:RDF>
  </metadata>
  <g
     inkscape:groupmode="layer"
     id="layer1"
     inkscape:label="Layer 3" />
  <g
     inkscape:groupmode="layer"
     id="layer2"
     inkscape:label="Layer 2"
     style="display:inline"
     transform="translate(-56.215193,-106.37195)">
    <path
       style="fill:#d4aa00;fill-opacity:1;stroke:none;stroke-width:0.264583px;stroke-linecap:butt;stroke-linejoin:miter;stroke-opacity:1"
       d="m 90.118969,141.37254 -1.13393,3.93096 3.817561,-2.00328 -2.343443,2.83482 3.628562,0.75596 -3.212799,0.79374 1.965481,1.73869 -2.721432,-0.22678 2.078868,3.02381 -3.515175,-2.19226 -0.377976,2.11666 -0.642564,-1.85208 -2.645833,2.87262 0.453575,-3.0994 -2.683632,0.45357 2.192269,-1.96548 -2.641116,-0.44412 2.494645,-1.32292 -1.795386,-1.5308 2.475744,0.11339 -1.493004,-3.1183 3.420679,2.19226 z"
       id="path847" />
    <path
       style="fill:#d4aa00;fill-opacity:1;stroke:none;stroke-width:0.264583px;stroke-linecap:butt;stroke-linejoin:miter;stroke-opacity:1"
       d="m 120.54606,126.31018 4.02545,-2.04107 -2.49464,3.04271 4.11993,0.66146 -3.64746,0.83155 2.05997,1.87098 -2.68364,-0.0756 1.98438,3.08051 -3.60968,-2.24896 -0.41577,2.26786 -0.86934,-2.13557 -2.62694,3.2128 0.37798,-3.38289 -2.87262,0.51027 2.53244,-2.09777 -3.02381,-0.37797 2.60804,-1.43631 -1.85209,-1.682 2.92932,0.22679 -1.90878,-3.47738 3.59077,2.43794 2.89152,-3.0616 z"
       id="path849" />
    <path
       style="fill:#d4aa00;fill-opacity:1;stroke:none;stroke-width:0.264583px;stroke-linecap:butt;stroke-linejoin:miter;stroke-opacity:1"
       d="m 130.30257,168.22775 0.69926,1.6442 0.54807,-1.96548 3.1183,2.02217 -1.79539,-2.83482 2.45685,0.0945 -1.96548,-1.7009 3.66637,-0.71815 -3.93095,-0.75596 2.45684,-2.75922 -3.68527,1.90878 1.00164,-3.85536 -2.68363,3.0994 -3.30729,-2.26785 1.41741,3.04271 -2.40015,-0.1134 1.5497,1.6064 -2.41904,1.34182 2.57023,0.47247 -2.09776,1.70089 2.64583,-0.37797 -0.32128,2.96711 z"
       id="path886" />
    <path
       d="m 75.595609,190.05722 -3.465733,-12.10017 c -0.05208,-0.1468 0.125071,-0.2616 0.303802,-0.2743 2.532862,-0.25899 5.478103,-2.1032 5.811346,-6.16667 0.35841,-4.37035 -2.706335,-7.05863 -8.181477,-7.72845 l -9.846558,-1.20461 c -0.313751,-0.0393 -0.649784,0.11243 -0.693869,0.45763 l -2.924867,24.64265 c -0.03968,0.31069 0.154176,0.46187 0.537653,0.50989 l 2.266012,0.28353 c 0.453195,0.0567 1.198269,0.043 1.25117,-0.37122 l 1.281899,-10.49002 c 0.02204,-0.17261 0.179804,-0.31318 0.493555,-0.2739 l 5.290169,0.68451 c 0.522648,0.0676 0.59941,0.17195 0.703586,0.46558 l 2.841166,11.08992 c 0.06932,0.28926 0.618762,0.45816 0.932512,0.49746 l 2.544857,0.31879 c 0.348611,0.0437 0.95803,0.0199 0.854777,-0.34062 z m -7.646483,-14.96886 -5.174055,-0.54225 c -0.244029,-0.0306 -0.443115,-0.24421 -0.40344,-0.55489 l 0.991218,-7.61695 c 0.03593,-0.27607 0.254759,-0.3489 0.603371,-0.30525 l 5.721369,0.80792 c 3.005006,0.46354 4.243629,1.32818 4.283312,4.33933 -0.623835,3.18374 -1.141201,3.68795 -6.021775,3.87209 z"
       style="font-size:35.752px;line-height:1.25;font-family:'Libre Franklin';-inkscape-font-specification:'Libre Franklin';fill:#ffffff;fill-opacity:1;stroke-width:0.874183"
       id="path896"
       sodipodi:nodetypes="sccssccccscccsccscscccscccc" />
    <path
       d="m 83.861355,183.35629 c 0.04037,-0.31922 0.146955,-0.31812 0.359771,-0.29121 l 12.943384,1.62435 c 0.567507,0.0718 0.536467,-0.6281 0.563907,-1.02041 0.42682,-6.10309 -2.151742,-9.53257 -7.294822,-10.18295 -5.072145,-0.64141 -9.640406,2.17793 -10.267494,8.28639 -0.587492,5.72276 2.548714,9.93884 7.779307,10.62157 3.509679,0.4581 6.165754,-0.35344 8.408948,-2.98875 0.168792,-0.19487 0.155752,-0.3767 -0.0081,-0.50554 l -1.395523,-0.93325 c -0.199369,-0.13332 -0.470621,-0.20484 -0.670395,-0.0499 -1.959843,1.54858 -3.245037,2.39815 -5.598167,1.95024 -3.502746,-0.66674 -4.792618,-2.71378 -4.87423,-6.09625 z m 0.411641,-2.44716 c 0.644316,-2.6401 1.982383,-5.43422 5.777618,-4.95429 3.476017,0.43957 4.2392,2.68678 4.387997,5.63025 0.02166,0.42847 -0.289472,0.49649 -0.786048,0.43369 z"
       style="font-size:35.752px;line-height:1.25;font-family:'Libre Franklin';-inkscape-font-specification:'Libre Franklin';fill:#ffffff;fill-opacity:1;stroke-width:0.893804"
       id="path898"
       sodipodi:nodetypes="cccssssccccscccsscc" />
    <path
       d="m 99.596177,193.51806 2.696323,0.37402 c 0.28375,0.0359 0.5029,-0.0481 0.60076,-0.25195 l 2.93862,-5.91655 c 0.0979,-0.20385 0.22659,-0.27469 0.47488,-0.24329 l 9.747,1.15825 c 0.28375,0.0359 0.38134,0.0711 0.42985,0.25739 l 1.24314,6.46895 c 0.075,0.26174 0.54576,0.52836 0.83001,0.5601 l 2.85243,0.31846 c 0.31922,0.0404 0.63525,-0.0295 0.60467,-0.35767 l -5.76194,-25.65008 c -0.0616,-0.36815 -0.64388,-0.64607 -1.06924,-0.70202 l -3.16752,-0.41668 c -0.42564,-0.0538 -0.679,0.23046 -0.86573,0.56721 l -11.834023,23.25667 c -0.19122,0.37222 -0.003,0.53789 0.28077,0.57719 z m 8.228093,-9.0713 c -0.28376,-0.0359 -0.60851,-0.29824 -0.43075,-0.56406 l 5.29076,-9.91031 c 0.19571,-0.40768 0.52005,-0.2249 0.64358,0.22316 l 2.36638,10.68429 c 0.035,0.29272 -0.11634,0.45222 -0.43561,0.41184 z"
       style="font-size:35.752px;line-height:1.25;font-family:'Libre Franklin';-inkscape-font-specification:'Libre Franklin';fill:#ffffff;fill-opacity:1;stroke-width:0.893804"
       id="path900"
       sodipodi:nodetypes="scccccccscccscccsccccccc" />
  </g>
</svg>
